<?xml version="1.0" standalone="no"?>
<!DOCTYPE svg PUBLIC "-//W3C//DTD SVG 20010904//EN"
 "http://www.w3.org/TR/2001/REC-SVG-20010904/DTD/svg10.dtd">
<svg version="1.0" xmlns="http://www.w3.org/2000/svg"
 width="875.000000pt" height="875.000000pt" viewBox="0 0 875.000000 875.000000"
 preserveAspectRatio="xMidYMid meet">
<metadata>
Created by potrace 1.11, written by Peter Selinger 2001-2013
</metadata>
<g transform="translate(0.000000,875.000000) scale(0.100000,-0.100000)"
fill="#000000" stroke="none">
<path d="M4145 8674 c-900 -58 -1710 -354 -2409 -883 -865 -652 -1462 -1630
-1641 -2683 -73 -434 -80 -924 -19 -1343 203 -1402 1086 -2610 2368 -3241 848
-418 1799 -549 2736 -378 855 157 1663 580 2280 1194 1010 1004 1452 2420
1194 3818 -210 1137 -876 2141 -1849 2786 -195 130 -274 176 -471 274 -467
234 -966 380 -1495 437 -139 15 -571 27 -694 19z m505 -204 c959 -66 1839
-442 2545 -1087 364 -332 678 -750 903 -1199 380 -759 512 -1641 371 -2479
-261 -1552 -1415 -2837 -2939 -3270 -404 -114 -729 -159 -1155 -159 -374 1
-668 36 -1018 124 -790 198 -1533 646 -2068 1246 -391 438 -674 927 -852 1469
-307 938 -267 1910 117 2840 55 132 211 433 291 560 421 670 980 1178 1684
1529 649 324 1402 475 2121 426z"/>
<path d="M2465 7601 c-34 -15 -45 -35 -61 -117 -48 -250 -16 -525 87 -753 16
-35 25 -68 21 -75 -4 -6 -39 -55 -79 -108 -182 -242 -343 -574 -419 -866 -8
-28 -17 -37 -68 -57 -215 -87 -335 -275 -367 -574 -24 -222 23 -452 127 -623
71 -116 177 -212 323 -290 l64 -34 27 -79 c113 -331 367 -638 667 -805 32 -18
78 -52 103 -76 175 -166 456 -322 693 -384 80 -21 86 -24 72 -40 -8 -9 -21
-53 -29 -98 -15 -84 -53 -173 -101 -236 -24 -31 -42 -41 -139 -71 -139 -44
-323 -82 -441 -90 -49 -4 -102 -11 -117 -17 -19 -7 -56 -53 -122 -152 -189
-283 -319 -575 -397 -891 -46 -187 -37 -247 37 -261 42 -8 99 15 108 43 2 10
19 75 36 145 74 308 205 603 381 865 l49 72 57 6 c182 19 422 73 546 122 l48
19 94 -48 c125 -64 305 -123 456 -149 107 -18 150 -21 319 -16 261 7 431 46
647 147 l82 38 62 -25 c93 -38 231 -70 359 -83 127 -13 128 -14 209 -104 173
-191 297 -477 376 -864 13 -67 29 -131 35 -142 25 -47 106 -55 145 -15 19 19
25 35 25 70 0 56 -50 289 -88 412 l-28 89 60 -4 c55 -3 65 -1 104 27 23 17 70
68 104 114 160 215 234 486 210 767 -6 63 -18 195 -28 293 -15 154 -16 197 -6
310 18 198 67 394 154 617 26 67 88 209 95 219 1 2 23 -15 48 -38 54 -50 102
-55 150 -17 28 22 30 29 28 83 -2 49 7 82 58 221 65 174 135 338 168 393 29
48 27 85 -8 120 -23 22 -39 29 -68 29 -37 0 -45 -6 -132 -100 -97 -105 -224
-213 -306 -260 -27 -16 -51 -28 -53 -26 -1 2 9 21 23 42 142 207 211 549 156
766 -37 142 -119 275 -221 354 l-54 43 -43 208 c-83 408 -197 684 -355 858
l-45 50 14 40 c44 127 57 217 57 405 0 156 -3 199 -21 271 -50 199 -138 319
-234 319 -56 0 -89 -31 -89 -84 0 -61 -35 -190 -74 -271 -38 -80 -94 -147
-167 -201 l-50 -36 -121 57 c-211 99 -475 177 -748 221 -142 22 -579 31 -749
14 -319 -30 -741 -128 -960 -222 l-45 -19 -81 40 c-169 85 -308 223 -398 398
-25 49 -53 96 -61 102 -20 16 -85 23 -111 12z m371 -618 c105 -69 250 -133
301 -133 19 0 48 9 63 20 99 71 583 192 925 231 150 18 496 15 649 -5 313 -40
570 -118 836 -251 60 -30 122 -55 137 -55 34 0 154 78 224 145 76 73 113 122
157 210 l39 79 13 -89 c24 -168 -11 -435 -70 -529 -11 -19 -20 -50 -20 -70 0
-31 10 -47 69 -110 176 -190 272 -405 350 -780 l28 -132 -29 4 c-15 2 -57 -1
-92 -8 l-65 -12 -33 38 c-178 208 -437 338 -717 359 l-93 8 -54 83 c-65 99
-93 159 -94 198 0 44 -67 106 -113 106 -58 0 -89 -34 -98 -108 -24 -210 -394
-540 -791 -706 -113 -47 -246 -92 -251 -85 -106 150 -268 285 -422 354 -427
188 -929 83 -1221 -256 l-40 -45 -16 22 c-10 12 -39 36 -65 53 -31 21 -52 43
-59 64 -6 18 -25 41 -42 52 -17 11 -31 25 -32 32 -1 28 87 259 144 378 97 202
241 421 338 515 60 57 73 157 23 176 -44 17 -121 248 -140 423 l-7 65 88 -91
c52 -52 127 -115 180 -150z m2454 -1103 c0 -7 -81 -32 -87 -26 -1 1 10 19 25
40 l26 38 18 -22 c10 -12 18 -26 18 -30z m173 -217 c36 -37 65 -68 64 -69 -1
-1 -51 -9 -112 -18 -231 -34 -373 -80 -439 -142 -26 -25 -28 -31 -22 -78 13
-103 61 -127 155 -78 183 98 421 111 714 41 70 -17 135 -28 143 -25 21 8 78
-28 108 -67 25 -33 126 -266 126 -290 0 -19 32 -46 66 -56 46 -13 93 5 110 42
14 30 14 25 11 -78 -7 -195 -82 -367 -226 -518 -117 -122 -233 -193 -398 -244
-79 -24 -104 -26 -238 -26 -134 0 -159 2 -238 26 -165 51 -281 122 -398 244
-111 116 -177 240 -215 399 -23 98 -15 303 16 399 75 236 246 430 469 533 50
23 197 69 227 71 7 1 41 -29 77 -66z m422 -2 c127 -58 240 -146 326 -254 55
-68 48 -85 -10 -28 -34 35 -79 64 -157 101 -111 53 -267 151 -339 214 l-40 35
79 -20 c44 -11 107 -33 141 -48z m-2420 -11 c89 -23 201 -73 272 -121 51 -35
183 -157 183 -170 0 -4 -28 -17 -62 -28 -62 -21 -62 -21 -83 -1 -12 11 -27 20
-33 20 -7 0 -15 8 -19 18 -23 65 -105 84 -161 37 -17 -14 -45 -32 -64 -39 -28
-12 -36 -12 -53 0 -30 22 -70 17 -137 -20 -35 -19 -73 -37 -85 -41 -21 -6 -23
-3 -23 32 0 48 -21 78 -63 92 -45 15 -88 1 -112 -36 -11 -17 -40 -45 -66 -62
-44 -31 -46 -31 -77 -16 -36 18 -61 14 -107 -19 -22 -15 -47 -21 -95 -22 -36
-1 -74 -3 -85 -3 -11 -1 -35 1 -52 5 l-33 6 33 45 c47 67 175 183 248 226 85
50 201 94 296 112 103 19 272 13 378 -15z m-1298 -252 c75 -44 103 -70 103
-95 0 -5 -22 -10 -49 -10 -132 -2 -242 -124 -273 -301 -15 -88 -2 -170 42
-258 36 -74 117 -154 155 -154 28 0 75 40 75 64 0 9 -22 40 -50 71 -73 81 -94
126 -94 210 -1 120 64 225 149 241 20 3 38 5 40 2 2 -2 -6 -37 -17 -78 -18
-63 -22 -103 -22 -250 -1 -153 2 -186 22 -260 27 -100 95 -245 146 -312 20
-26 36 -50 36 -54 0 -11 -93 5 -153 25 -88 31 -247 117 -301 163 -205 177
-278 591 -151 854 52 106 172 208 233 196 15 -3 64 -27 109 -54z m2417 -94
c-40 -86 -72 -201 -81 -289 l-5 -60 -82 0 c-44 0 -95 -3 -112 -7 l-31 -7 -17
85 c-9 47 -25 108 -35 135 l-19 50 21 8 c12 4 58 20 102 35 44 15 125 50 180
76 55 27 103 49 107 49 4 1 -9 -33 -28 -75z m2026 -10 c28 -15 74 -53 104 -84
100 -104 142 -228 133 -385 -12 -195 -92 -399 -205 -525 -98 -111 -259 -179
-381 -163 l-42 6 39 41 c102 106 162 196 218 324 32 74 34 76 69 78 44 1 78
31 109 98 70 153 93 368 47 456 -45 86 -116 140 -185 140 -32 0 -56 19 -56 46
0 15 104 -7 150 -32z m-3115 -166 c-152 -22 -290 -117 -370 -254 -38 -65 -42
-98 -14 -118 35 -24 47 -20 87 25 43 48 120 107 178 137 l40 21 -13 -62 c-25
-120 -13 -211 34 -267 115 -137 277 -28 308 208 l7 54 22 -21 c40 -38 71 -28
115 37 39 58 53 97 65 179 5 34 2 47 -13 62 -24 24 -11 31 59 31 l49 0 26 -81
c69 -218 41 -461 -76 -661 -49 -84 -160 -204 -245 -264 -336 -240 -800 -210
-1101 70 -173 161 -260 344 -270 567 l-6 116 46 -1 c57 -1 81 19 115 97 25 59
25 59 61 52 100 -18 128 -17 169 4 24 12 60 21 88 21 32 0 66 10 108 30 l61
30 40 -20 c46 -24 117 -26 192 -7 33 9 57 10 68 4 22 -12 91 -1 134 22 27 14
39 16 57 7 22 -10 20 -11 -21 -18z m3073 -27 c34 -60 36 -113 9 -221 l-25 -95
-1 120 c-1 66 -7 148 -14 181 -15 72 -4 77 31 15z m-2905 32 c-7 -2 -19 -2
-25 0 -7 3 -2 5 12 5 14 0 19 -2 13 -5z m837 -383 c4 -8 17 -55 29 -105 43
-182 173 -389 318 -507 197 -161 386 -234 633 -245 196 -8 356 26 527 114 95
48 90 56 67 -96 -30 -204 -89 -331 -218 -468 -98 -104 -215 -186 -395 -277
-188 -95 -262 -121 -399 -140 -62 -8 -135 -25 -162 -37 -87 -37 -170 -153
-170 -236 0 -13 -1 -23 -2 -23 -2 0 -41 -7 -88 -15 -193 -34 -543 -56 -629
-39 -22 5 -31 12 -31 26 0 30 -29 91 -58 121 -41 44 -109 74 -251 112 -521
138 -908 505 -1076 1020 -19 58 -35 110 -35 115 0 5 33 -14 73 -43 40 -29 106
-68 147 -88 631 -305 1370 64 1483 741 15 88 17 89 146 87 63 -2 86 -6 91 -17z
m2177 -708 c6 -10 36 -27 67 -36 l56 -18 -30 -52 c-112 -187 -210 -421 -258
-611 -53 -211 -57 -257 -53 -535 8 -525 7 -610 -12 -680 -39 -143 -100 -237
-215 -332 -27 -22 -32 -33 -32 -70 l-1 -43 -52 100 c-63 121 -74 138 -153 240
-62 81 -148 168 -194 197 -16 10 -62 18 -125 22 -118 8 -270 37 -349 68 -65
24 -143 101 -193 189 -38 68 -83 191 -83 228 0 36 -32 77 -67 86 l-28 7 25 13
c14 7 70 18 125 25 173 21 365 95 575 222 58 35 134 75 169 88 244 91 457 341
616 725 l42 100 74 42 c41 23 76 42 79 42 3 1 10 -7 17 -17z m-4301 -25 c13
-40 52 -183 50 -185 -5 -4 -59 93 -84 152 l-22 48 28 -7 c15 -4 27 -7 28 -8z
m3901 -99 c-3 -8 -6 -5 -6 6 -1 11 2 17 5 13 3 -3 4 -12 1 -19z m-1369 -1411
c12 -35 42 -97 66 -138 24 -41 41 -77 38 -80 -17 -16 -197 -81 -292 -105 -86
-21 -136 -27 -277 -31 -197 -6 -314 8 -473 59 -106 34 -250 96 -250 109 0 4
11 29 25 55 14 26 32 71 42 100 13 42 19 51 32 45 43 -22 188 -36 361 -35 202
1 408 21 585 59 61 13 112 23 115 24 3 1 15 -27 28 -62z m1332 -901 c0 -16
-18 -3 -28 19 -17 37 -15 41 8 12 11 -14 20 -28 20 -31z"/>
<path d="M5675 5200 c-44 -63 -79 -80 -169 -80 -157 0 -309 -54 -405 -144 -99
-93 -130 -173 -76 -198 22 -10 31 -7 78 25 57 37 157 90 194 101 21 7 21 6 6
-41 -19 -61 -22 -190 -4 -223 37 -69 90 -92 161 -71 70 21 136 130 168 280
l18 82 53 -35 c29 -20 64 -36 78 -36 33 0 79 47 92 96 15 54 14 227 -1 242
-16 16 -65 15 -74 0 -6 -9 -10 -5 -14 12 -5 20 -13 26 -41 28 -32 3 -39 -1
-64 -38z"/>
<path d="M4195 3818 c-85 -12 -97 -21 -93 -67 3 -36 3 -36 48 -35 25 1 97 5
161 9 81 5 131 4 163 -4 64 -16 88 -3 84 47 -3 33 -7 38 -43 48 -47 15 -221
15 -320 2z"/>
</g>
</svg>
