<?xml version="1.0" standalone="no"?>
<!DOCTYPE svg PUBLIC "-//W3C//DTD SVG 20010904//EN"
 "http://www.w3.org/TR/2001/REC-SVG-20010904/DTD/svg10.dtd">
<svg version="1.0" xmlns="http://www.w3.org/2000/svg"
 width="875.000000pt" height="875.000000pt" viewBox="0 0 875.000000 875.000000"
 preserveAspectRatio="xMidYMid meet">
<metadata>
Created by potrace 1.11, written by Peter Selinger 2001-2013
</metadata>
<g transform="translate(0.000000,875.000000) scale(0.100000,-0.100000)"
fill="#000000" stroke="none">
<path d="M4090 8704 c-19 -2 -91 -9 -160 -15 -385 -33 -877 -158 -1248 -315
-938 -398 -1710 -1117 -2174 -2024 -225 -440 -374 -924 -439 -1430 -27 -209
-37 -659 -20 -877 100 -1261 734 -2405 1751 -3157 597 -441 1297 -717 2060
-812 172 -21 648 -30 836 -15 1208 95 2304 678 3059 1626 605 760 935 1709
935 2689 0 1009 -327 1939 -960 2730 -123 154 -380 419 -535 554 -661 571
-1463 922 -2345 1028 -127 15 -671 28 -760 18z m745 -139 c958 -113 1823 -531
2500 -1210 478 -479 821 -1035 1029 -1672 196 -602 253 -1256 165 -1893 -127
-916 -565 -1778 -1231 -2425 -318 -310 -648 -545 -1043 -746 -443 -224 -884
-357 -1410 -426 -112 -14 -208 -18 -485 -18 -379 1 -510 13 -825 75 -717 144
-1389 477 -1945 966 -703 617 -1183 1458 -1360 2379 -46 242 -61 401 -67 700
-8 420 25 725 119 1100 187 750 560 1408 1112 1961 712 713 1623 1135 2636
1223 158 14 640 6 805 -14z"/>
<path d="M2462 7530 c-23 -65 -34 -195 -29 -338 5 -168 31 -287 92 -425 20
-45 39 -89 41 -97 3 -9 -18 -44 -47 -80 -189 -235 -366 -579 -445 -865 -30
-109 -38 -125 -63 -125 -33 0 -143 -61 -193 -107 -143 -134 -206 -328 -195
-603 15 -348 149 -568 440 -721 l69 -36 28 -85 c101 -315 352 -621 648 -790
31 -17 95 -65 142 -106 215 -187 391 -276 756 -381 48 -14 83 -32 105 -52 38
-36 27 -49 -20 -25 -36 19 -85 21 -98 4 -5 -7 -17 -50 -25 -95 -18 -92 -64
-192 -114 -252 -29 -33 -49 -44 -127 -70 -171 -57 -303 -83 -529 -107 l-58 -5
-56 -77 c-179 -245 -342 -593 -422 -903 -40 -153 -47 -205 -32 -224 15 -18 64
-20 77 -2 5 6 20 57 32 112 73 314 204 619 382 885 l78 117 93 7 c127 9 303
47 456 98 l128 43 100 -52 c436 -229 991 -228 1445 3 l49 24 38 -19 c97 -49
333 -101 461 -101 47 0 56 -4 98 -42 62 -58 160 -185 217 -283 97 -167 177
-395 233 -667 33 -159 50 -183 104 -139 22 18 22 20 10 92 -86 483 -282 898
-515 1092 -48 39 -53 41 -201 52 -103 8 -235 37 -312 68 -111 45 -206 164
-267 335 -14 40 -26 84 -26 98 0 36 -17 64 -39 64 -10 0 -37 -6 -59 -14 l-40
-14 10 36 c22 81 66 106 236 132 70 10 162 31 203 46 94 33 273 123 361 180
38 24 101 57 142 72 253 98 462 350 616 742 l34 85 79 39 c144 70 284 227 355
398 53 128 74 222 79 364 7 157 -10 247 -64 355 -37 74 -131 184 -187 218 -30
19 -33 27 -50 118 -90 496 -208 793 -396 997 l-39 43 19 50 c88 231 84 612 -8
804 -73 153 -190 200 -191 77 0 -60 -45 -209 -88 -290 -37 -71 -153 -192 -214
-223 -31 -17 -32 -17 -158 44 -562 267 -1261 322 -1980 155 -166 -39 -372
-101 -459 -140 l-54 -24 -73 34 c-195 90 -355 245 -450 436 -42 85 -48 90 -92
90 -26 0 -33 -5 -41 -30z m3732 -241 c66 -195 47 -525 -39 -692 -14 -27 -25
-55 -25 -63 0 -8 31 -47 68 -87 183 -194 279 -416 368 -850 13 -66 24 -123 24
-127 0 -4 -34 -5 -75 -2 -45 3 -93 0 -120 -8 -44 -12 -47 -12 -62 11 -34 51
-182 189 -251 234 -159 102 -367 164 -552 165 l-55 0 -45 68 c-62 92 -120 211
-120 244 0 32 -32 58 -72 58 -32 0 -51 -28 -43 -62 11 -43 -66 -183 -163 -296
-112 -130 -345 -298 -557 -402 -99 -48 -338 -140 -364 -140 -4 0 -24 24 -44
53 -88 128 -270 273 -421 336 -137 57 -233 75 -401 75 -168 0 -266 -18 -398
-74 -152 -65 -314 -191 -404 -312 l-36 -50 -12 29 c-14 32 -79 94 -124 117
-22 12 -31 24 -33 48 -3 30 -7 34 -45 42 -24 6 -43 14 -43 18 0 33 111 333
163 440 102 212 284 486 357 538 37 27 42 80 9 103 -26 19 -90 167 -119 277
-16 63 -24 124 -27 235 -3 88 -1 146 4 140 5 -5 26 -36 47 -67 109 -163 338
-334 522 -388 38 -11 44 -10 71 9 40 30 229 93 417 141 558 140 1071 147 1553
20 160 -43 287 -90 456 -172 l147 -72 84 58 c156 106 253 237 307 418 11 38
22 68 24 66 2 -2 15 -37 29 -79z m-880 -1360 c36 -60 41 -75 27 -77 -51 -8
-155 -39 -215 -64 l-69 -28 44 48 c52 55 109 133 134 181 20 40 22 38 79 -60z
m396 -181 c212 -40 412 -170 555 -361 l28 -37 -13 -75 c-7 -41 -16 -75 -19
-75 -3 0 -17 26 -31 57 -36 84 -82 123 -217 188 -151 72 -266 150 -367 247
l-81 78 45 -6 c25 -3 70 -10 100 -16z m-178 -91 l104 -104 -48 5 c-103 10
-401 -45 -506 -93 -83 -38 -105 -62 -97 -105 15 -88 29 -93 127 -46 212 101
492 105 816 10 18 -5 24 -2 29 15 l5 21 48 -26 c82 -45 114 -87 173 -229 30
-71 58 -140 61 -152 8 -26 51 -41 75 -26 14 9 36 134 40 231 2 48 20 18 40
-67 132 -563 -329 -1099 -919 -1068 -481 26 -850 405 -850 872 0 400 271 740
674 845 116 31 111 32 228 -83z m-2141 38 c218 -38 415 -148 544 -303 l54 -66
-82 -27 c-132 -43 -141 -44 -155 -14 -9 19 -19 25 -42 25 -26 0 -30 4 -30 28
0 58 -46 68 -103 24 -46 -37 -129 -70 -135 -53 -2 6 -13 16 -24 22 -16 9 -35
3 -102 -31 -47 -24 -103 -44 -130 -47 l-47 -6 7 63 c8 68 1 80 -47 80 -19 0
-32 -10 -50 -36 -13 -21 -52 -54 -88 -75 -63 -38 -65 -38 -78 -19 -20 28 -47
25 -100 -11 -39 -27 -48 -30 -69 -20 -33 15 -70 14 -86 -2 -23 -23 -42 -25
-67 -6 -34 27 -45 24 -85 -23 l-36 -43 0 36 c0 60 104 205 216 300 202 172
479 249 735 204z m1320 -234 c-88 -111 -166 -315 -178 -463 l-6 -77 -71 5
c-64 6 -154 -4 -197 -21 -13 -5 -17 5 -23 57 -7 71 -34 173 -64 240 l-19 45
46 12 c120 32 429 172 511 231 36 27 37 16 1 -29z m-2581 18 c8 -9 50 -37 93
-63 42 -26 77 -50 78 -54 1 -4 6 -36 13 -72 10 -59 9 -71 -11 -127 -43 -119
-56 -214 -50 -367 4 -114 10 -158 31 -231 98 -329 363 -582 706 -673 81 -21
118 -25 250 -26 129 0 170 3 243 22 184 46 333 128 466 256 157 152 256 341
285 550 l12 81 39 12 c43 12 164 17 213 7 28 -6 31 -11 41 -68 26 -137 87
-279 166 -391 52 -73 180 -197 255 -246 342 -225 788 -225 1130 0 75 49 203
173 255 246 52 73 106 181 131 258 18 57 18 58 31 32 27 -51 94 -21 132 60 64
137 90 357 52 441 -42 91 -128 151 -205 142 -32 -4 -35 -1 -56 41 -27 56 -18
63 70 59 86 -4 162 -42 238 -117 161 -162 196 -385 105 -676 -43 -136 -98
-230 -188 -321 -127 -127 -245 -172 -415 -159 -104 8 -93 22 -115 -145 -31
-236 -84 -365 -211 -512 -104 -120 -262 -232 -468 -332 -158 -76 -245 -105
-371 -122 -133 -19 -195 -44 -241 -97 -35 -41 -64 -118 -64 -168 0 -26 -3 -27
-87 -43 -196 -34 -516 -61 -613 -51 -133 14 -127 12 -132 60 -7 59 -41 110
-95 142 -25 14 -107 43 -182 64 -290 80 -504 200 -703 395 -144 141 -244 280
-323 447 -62 131 -118 302 -118 359 0 26 -4 52 -11 56 -6 5 -44 13 -85 16
-101 10 -186 38 -316 104 -191 96 -297 226 -357 437 -19 68 -23 104 -23 240 0
140 3 169 24 235 32 103 55 145 115 208 73 77 138 113 201 109 30 -1 56 -8 65
-18z m1939 -297 c55 -108 84 -286 69 -432 -47 -485 -520 -851 -1009 -781 -308
45 -563 227 -694 496 -56 115 -75 186 -82 311 -6 110 3 234 18 234 5 0 9 -8 9
-19 0 -26 24 -43 57 -39 24 3 33 13 62 74 33 72 33 72 79 77 31 3 53 0 66 -9
30 -21 65 -17 115 12 32 18 53 23 73 19 35 -8 87 8 161 51 31 18 57 29 57 24
0 -6 9 -19 20 -30 25 -25 122 -28 196 -5 31 9 52 11 58 5 17 -17 62 -11 125
16 57 25 61 25 78 9 14 -14 29 -17 83 -13 47 4 72 1 85 -8 10 -8 28 -14 39
-14 19 -1 19 -3 -6 -25 -26 -22 -33 -23 -116 -18 -104 7 -169 -6 -262 -51
-146 -70 -301 -292 -213 -304 15 -2 33 9 59 37 20 23 57 57 83 75 50 37 150
90 156 84 3 -2 -2 -26 -10 -53 -17 -56 -19 -173 -5 -227 23 -81 97 -130 163
-109 76 25 134 131 145 263 l7 82 37 -37 c21 -20 44 -37 51 -37 8 0 33 27 55
61 41 61 66 143 60 196 -5 42 -40 42 -79 1 -18 -18 -29 -25 -26 -16 3 9 11 34
16 55 10 35 15 39 68 55 32 10 74 20 93 21 19 2 36 5 37 5 2 1 11 -15 22 -36z
m2487 -37 c41 -26 57 -80 51 -169 -8 -110 -48 -242 -83 -275 -22 -22 -25 -23
-19 -6 5 11 10 85 13 163 4 130 -1 192 -25 291 -5 21 -3 22 18 16 13 -4 33
-13 45 -20z m-4214 -1072 c32 -3 62 -11 66 -17 5 -6 17 -42 27 -81 33 -130
102 -289 193 -445 8 -14 -25 15 -73 64 -125 130 -222 280 -285 445 -19 48 -19
53 -4 47 10 -4 44 -9 76 -13z m4008 -88 c0 -12 -46 -118 -86 -199 -39 -78
-121 -216 -129 -216 -1 0 13 44 31 98 18 53 41 148 51 210 l17 112 58 0 c32 0
58 -2 58 -5z m-1426 -1385 c11 -57 66 -177 116 -251 l49 -74 -70 -32 c-105
-49 -229 -90 -342 -115 -146 -31 -418 -31 -563 0 -138 30 -241 64 -362 122
l-104 50 22 35 c37 59 67 128 85 191 10 32 19 60 20 62 1 1 22 -6 46 -16 111
-48 353 -58 639 -28 151 16 372 56 421 75 35 14 36 14 43 -19z"/>
<path d="M5683 5186 c-44 -62 -77 -77 -186 -81 -164 -6 -296 -55 -392 -146
-58 -55 -102 -127 -92 -152 10 -27 44 -20 110 25 58 39 178 97 203 98 8 0 6
-23 -7 -72 -33 -125 -21 -225 32 -262 36 -25 106 -21 145 9 42 32 99 148 114
235 7 36 14 75 16 88 3 12 8 22 12 22 7 0 82 -47 119 -75 21 -16 65 15 87 59
24 50 36 227 16 251 -22 26 -48 17 -69 -22 l-20 -38 -1 41 c0 76 -41 85 -87
20z"/>
<path d="M2133 5255 c-60 -30 -101 -78 -141 -162 -24 -52 -27 -69 -27 -168 0
-100 2 -115 28 -167 15 -31 48 -80 73 -107 37 -41 52 -51 78 -51 73 0 73 44 2
121 -68 73 -90 134 -84 228 9 118 76 215 158 229 52 9 68 30 54 69 -14 40 -70
43 -141 8z"/>
<path d="M4225 3806 c-103 -13 -115 -18 -115 -51 0 -12 6 -25 13 -28 6 -2 64
3 127 11 94 12 130 13 199 3 91 -13 105 -9 99 30 -6 44 -141 58 -323 35z"/>
<path d="M7215 4473 c-105 -112 -247 -229 -329 -270 -27 -14 -79 -30 -115 -37
-57 -10 -66 -15 -69 -35 -9 -62 19 -83 130 -99 l46 -7 -50 -80 c-79 -126 -183
-349 -232 -496 -94 -283 -115 -480 -90 -852 23 -350 9 -475 -72 -643 -37 -78
-55 -102 -119 -161 -77 -72 -89 -97 -59 -127 30 -30 66 -14 158 73 50 47 52
43 7 -19 -41 -58 -84 -100 -101 -100 -40 0 -57 -70 -21 -90 55 -29 109 3 191
112 141 186 210 395 210 633 0 57 -9 190 -21 297 -50 464 9 787 233 1268 l45
95 17 -37 c21 -45 89 -108 114 -108 33 0 55 35 48 74 -5 27 5 67 48 188 59
166 146 374 177 424 10 17 19 41 19 52 0 25 -25 52 -48 52 -9 0 -62 -48 -117
-107z m-110 -338 c-24 -66 -44 -126 -45 -133 0 -7 -5 -10 -11 -7 -6 5 -8 25
-5 54 7 51 2 62 -32 80 -22 12 -21 14 55 71 43 32 79 57 80 56 1 -1 -18 -55
-42 -121z"/>
</g>
</svg>
