<?xml version="1.0" standalone="no"?>
<!DOCTYPE svg PUBLIC "-//W3C//DTD SVG 20010904//EN"
 "http://www.w3.org/TR/2001/REC-SVG-20010904/DTD/svg10.dtd">
<svg version="1.0" xmlns="http://www.w3.org/2000/svg"
 width="1200.000000pt" height="1200.000000pt" viewBox="0 0 1200.000000 1200.000000"
 preserveAspectRatio="xMidYMid meet">
<metadata>
Created by potrace 1.11, written by Peter Selinger 2001-2013
</metadata>
<g transform="translate(0.000000,1200.000000) scale(0.100000,-0.100000)"
fill="#000000" stroke="none">
<path d="M3230 11314 c-734 -67 -1336 -301 -1880 -732 -129 -102 -417 -393
-516 -522 -277 -358 -474 -751 -574 -1145 -172 -671 -96 -1456 234 -2431 317
-936 844 -1849 1550 -2684 260 -307 750 -811 1031 -1061 620 -551 1213 -993
1950 -1454 326 -204 882 -525 909 -525 17 0 355 181 596 318 936 534 1734
1099 2440 1728 189 169 577 551 745 734 998 1088 1650 2246 1974 3500 52 200
95 425 123 636 32 244 32 673 -1 884 -81 533 -304 1031 -657 1475 -113 141
-358 386 -499 499 -487 388 -1048 625 -1685 711 -164 23 -516 30 -691 16 -807
-68 -1539 -408 -2110 -981 l-145 -146 -125 130 c-151 158 -276 270 -426 383
-469 352 -1009 571 -1604 648 -109 15 -545 27 -639 19z m472 -1933 c175 -31
351 -96 446 -168 37 -28 42 -63 13 -92 -39 -39 -78 -36 -202 12 -331 131 -625
141 -955 33 -117 -39 -345 -156 -454 -233 -116 -83 -299 -262 -369 -363 -102
-145 -173 -315 -206 -495 -24 -125 -16 -357 15 -470 67 -246 191 -420 355
-500 126 -62 254 -67 425 -18 263 76 448 261 552 553 35 99 48 188 68 463 22
294 56 696 66 765 5 38 10 46 39 58 19 8 50 14 70 14 43 0 103 -24 111 -43 3
-8 1 -57 -5 -108 -35 -313 -85 -947 -97 -1221 -6 -136 -5 -163 10 -203 23 -58
48 -75 111 -75 74 0 142 36 201 106 111 131 109 129 137 117 15 -7 33 -26 42
-43 16 -31 16 -33 -11 -73 -38 -59 -151 -166 -215 -204 -74 -44 -167 -67 -251
-61 -132 10 -195 78 -222 239 -12 74 -14 81 -24 59 -6 -14 -18 -43 -27 -65
-51 -119 -160 -247 -277 -322 -200 -129 -495 -191 -708 -149 -251 50 -454 243
-560 534 -163 446 -52 946 298 1347 264 303 694 537 1122 610 120 21 368 18
502 -4z m5321 -116 c92 -19 145 -56 180 -124 49 -97 28 -208 -66 -349 -138
-205 -481 -459 -909 -670 -224 -111 -204 -88 -254 -277 -37 -135 -39 -271 -7
-332 39 -72 103 -103 212 -103 75 0 145 17 224 53 47 21 55 29 61 58 8 44 57
147 98 207 148 217 429 372 673 372 171 0 321 -64 300 -129 -4 -14 3 -20 37
-30 59 -17 88 -38 88 -62 0 -11 -63 -130 -139 -264 -182 -317 -204 -361 -205
-411 -2 -75 45 -106 157 -106 101 1 220 43 338 118 42 27 59 13 59 -50 0 -66
-14 -85 -95 -125 -114 -55 -199 -76 -321 -76 -103 0 -114 2 -169 30 -85 43
-119 101 -119 196 l1 69 -40 -36 c-83 -76 -196 -109 -346 -102 -161 8 -278 72
-317 174 -9 24 -18 44 -19 44 -1 0 -22 -7 -46 -16 -170 -61 -368 -57 -492 9
-64 34 -95 68 -127 140 -12 26 -22 47 -24 47 -2 0 -28 -11 -57 -24 -279 -122
-558 -137 -758 -40 -64 31 -168 130 -198 188 l-20 38 -124 -65 c-68 -35 -177
-96 -243 -134 l-118 -69 -48 -165 c-62 -213 -89 -289 -143 -403 -118 -249
-263 -378 -457 -407 -189 -28 -290 61 -278 245 7 120 104 275 267 428 79 74
327 267 428 333 41 26 45 33 74 129 16 55 32 108 35 116 3 8 -18 -11 -46 -42
-137 -154 -379 -180 -532 -57 l-38 30 -52 -40 c-163 -121 -360 -165 -484 -107
-145 67 -148 210 -18 649 71 238 64 253 -67 140 -163 -140 -327 -401 -404
-644 -69 -215 -85 -234 -194 -234 -62 0 -65 1 -83 31 -35 59 -50 218 -45 454
8 290 49 483 118 552 34 34 103 39 139 10 l23 -19 -21 -79 c-42 -155 -73 -371
-78 -539 l-5 -160 40 105 c93 240 191 405 323 545 151 160 283 239 394 238 72
-1 122 -24 142 -65 11 -23 6 -44 -39 -179 -94 -288 -160 -589 -139 -643 13
-34 53 -49 117 -43 76 8 136 39 209 108 l64 62 0 61 c1 332 292 660 627 707
137 19 283 -8 283 -52 0 -16 8 -19 49 -19 55 0 101 -28 101 -62 0 -11 -29
-111 -64 -221 -68 -212 -186 -600 -186 -611 0 -4 26 10 58 31 163 105 254 160
317 193 l70 36 7 84 c7 96 35 189 81 270 42 75 168 198 243 238 188 98 436 78
567 -47 53 -50 70 -87 70 -151 0 -220 -271 -385 -682 -416 -101 -8 -100 -7
-79 -78 8 -27 32 -61 68 -98 47 -46 69 -60 126 -78 150 -48 377 -21 567 68
l84 39 6 84 c22 277 227 768 437 1046 192 254 429 437 620 477 85 19 130 19
213 1z m-2512 -3545 c360 -36 728 -141 1049 -301 397 -198 688 -450 917 -794
274 -412 488 -935 590 -1442 26 -129 26 -133 8 -153 -19 -21 -41 -25 -62 -12
-6 4 -23 66 -38 137 -123 595 -367 1154 -690 1575 -439 571 -1188 900 -2055
900 -475 0 -949 -102 -1345 -290 -781 -369 -1359 -1127 -1666 -2185 -27 -93
-56 -176 -63 -184 -19 -18 -63 -7 -71 19 -13 42 113 448 220 705 214 516 523
982 840 1268 480 432 1106 700 1780 760 93 8 491 6 586 -3z m639 -1450 c11 -6
26 -34 35 -67 55 -187 265 -440 520 -624 l50 -36 105 14 c203 29 742 19 775
-13 22 -22 28 -111 22 -322 -8 -285 -41 -423 -163 -669 -65 -133 -82 -151
-123 -138 -38 12 -33 40 29 163 33 66 75 167 94 224 36 107 75 313 62 326 -4
4 -152 7 -329 6 -240 0 -359 -5 -467 -17 -367 -44 -659 -119 -950 -243 -125
-53 -123 -52 -199 -202 -85 -170 -123 -323 -123 -497 1 -242 72 -399 255 -563
44 -38 51 -84 16 -102 -17 -10 -27 -7 -58 14 -140 97 -258 300 -292 505 -10
63 -14 69 -76 130 -42 41 -88 74 -131 94 -62 29 -75 32 -172 32 -95 0 -110 -3
-155 -27 -27 -14 -64 -41 -81 -60 -28 -30 -32 -41 -37 -114 -15 -203 -89 -383
-208 -509 -39 -41 -79 -77 -90 -80 -30 -10 -58 4 -65 31 -5 20 7 37 72 107 87
91 122 149 160 259 87 255 25 586 -163 870 l-44 67 -107 41 c-372 144 -823
205 -1330 180 -192 -9 -391 -26 -399 -33 -1 -2 4 -50 12 -108 27 -205 61 -302
169 -482 116 -192 112 -185 100 -204 -6 -10 -25 -19 -41 -21 -28 -3 -34 3 -93
93 -142 220 -197 358 -224 565 -9 69 -20 139 -23 155 -17 87 -10 402 11 430
30 41 608 66 841 36 246 -31 439 -86 640 -179 107 -51 128 -57 197 -60 109 -6
182 10 396 82 240 81 316 112 487 196 334 163 612 359 889 627 137 132 161
147 206 123z"/>
<path d="M8826 9099 c-84 -20 -158 -71 -287 -199 -134 -134 -203 -219 -294
-370 -64 -105 -180 -338 -172 -346 6 -6 227 129 392 238 273 183 445 341 510
471 59 118 44 180 -50 206 -45 12 -46 12 -99 0z"/>
<path d="M6100 8393 c-51 -8 -127 -36 -180 -66 -154 -87 -295 -311 -276 -440
6 -41 6 -53 4 -109 -1 -38 44 -94 88 -108 47 -16 128 -9 179 15 56 27 116 92
158 172 30 57 197 511 197 535 0 8 -125 9 -170 1z"/>
<path d="M7204 8322 c-139 -48 -287 -224 -302 -359 l-5 -45 69 7 c193 19 400
92 471 167 141 148 -17 304 -233 230z"/>
<path d="M9204 7940 c-113 -17 -214 -62 -336 -152 -73 -53 -160 -143 -184
-189 -13 -26 -13 -32 2 -54 22 -33 11 -72 -26 -93 -25 -14 -30 -23 -30 -57 0
-90 75 -146 196 -147 153 -1 278 107 484 417 73 110 139 208 148 218 23 26 6
36 -84 52 -87 16 -96 16 -170 5z"/>
<path d="M5862 7191 c-307 -246 -460 -472 -393 -578 19 -30 25 -33 70 -33 62
0 122 21 172 61 43 33 131 160 178 255 28 57 135 403 127 412 -2 2 -72 -51
-154 -117z"/>
<path d="M7014 4088 c-114 -120 -163 -165 -286 -260 -397 -309 -812 -514
-1301 -643 -73 -19 -142 -35 -155 -35 -33 0 -27 -8 53 -77 83 -71 162 -160
216 -244 91 -140 180 -354 195 -468 4 -29 10 -53 14 -56 4 -2 22 6 41 19 152
101 384 81 552 -47 26 -21 49 -37 52 -37 3 0 5 18 5 41 0 58 36 226 66 311 38
106 120 263 177 338 194 255 481 444 830 546 67 20 128 38 135 40 8 2 -19 30
-61 64 -179 144 -375 382 -429 521 -13 33 -26 59 -29 59 -3 0 -37 -33 -75 -72z"/>
<path d="M7894 3465 c-333 -38 -613 -135 -850 -293 -90 -61 -236 -189 -199
-177 319 112 472 153 709 189 252 39 388 48 709 48 l298 -1 -3 117 -3 117 -70
6 c-120 11 -475 7 -591 -6z"/>
<path d="M3690 3387 l-105 -12 -3 -129 -3 -129 68 7 c441 43 874 33 1204 -29
115 -21 339 -77 404 -101 28 -10 14 4 -68 65 -210 158 -454 259 -753 312 -146
26 -574 35 -744 16z"/>
</g>
</svg>
